<?xml version="1.0" encoding="UTF-8" standalone="no"?>
<!DOCTYPE svg PUBLIC "-//W3C//DTD SVG 1.1//EN" "http://www.w3.org/Graphics/SVG/1.1/DTD/svg11.dtd">
<svg width="100%" height="100%" viewBox="0 0 128 128" version="1.1" xmlns="http://www.w3.org/2000/svg" xmlns:xlink="http://www.w3.org/1999/xlink" xml:space="preserve" xmlns:serif="http://www.serif.com/" style="fill-rule:evenodd;clip-rule:evenodd;stroke-linejoin:round;stroke-miterlimit:2;">
    <g transform="matrix(0.250691,0,0,0.250894,-9.5682,-10.7088)">
        <g transform="matrix(1,0,0,1,4.54747e-13,42.5203)">
            <path d="M0,0L841.89,0L0,0Z" style="fill:rgb(188,57,84);fill-rule:nonzero;stroke:black;stroke-width:1.66px;"/>
        </g>
        <g transform="matrix(1,0,0,1,4.54747e-13,42.5201)">
            <path d="M0,0L841.89,0" style="fill:none;fill-rule:nonzero;stroke:rgb(216,59,85);stroke-width:1.66px;stroke-linejoin:miter;stroke-miterlimit:10;"/>
        </g>
        <g transform="matrix(1,0,0,1,4.54747e-13,552.756)">
            <path d="M0,0L841.89,0L0,0Z" style="fill:rgb(188,57,84);fill-rule:nonzero;stroke:black;stroke-width:1.66px;"/>
        </g>
        <g transform="matrix(1,0,0,1,4.54747e-13,552.756)">
            <path d="M0,0L841.89,0" style="fill:none;fill-rule:nonzero;stroke:rgb(216,59,85);stroke-width:1.66px;stroke-linejoin:miter;stroke-miterlimit:10;"/>
        </g>
        <g transform="matrix(1,0,0,1,4.54747e-13,425.198)">
            <path d="M0,0L841.89,0L0,0Z" style="fill:rgb(188,57,84);fill-rule:nonzero;stroke:black;stroke-width:1.66px;"/>
        </g>
        <g transform="matrix(1,0,0,1,4.54747e-13,425.197)">
            <path d="M0,0L841.89,0" style="fill:none;fill-rule:nonzero;stroke:rgb(216,59,85);stroke-width:1.66px;stroke-linejoin:miter;stroke-miterlimit:10;"/>
        </g>
        <g transform="matrix(1,0,0,1,4.54747e-13,297.638)">
            <path d="M0,0L841.89,0L0,0Z" style="fill:rgb(188,57,84);fill-rule:nonzero;stroke:black;stroke-width:1.66px;"/>
        </g>
        <g transform="matrix(1,0,0,1,4.54747e-13,297.638)">
            <path d="M0,0L841.89,0" style="fill:none;fill-rule:nonzero;stroke:rgb(216,59,85);stroke-width:1.66px;stroke-linejoin:miter;stroke-miterlimit:10;"/>
        </g>
        <g transform="matrix(1,0,0,1,4.54747e-13,170.079)">
            <path d="M0,0L841.89,0L0,0Z" style="fill:rgb(188,57,84);fill-rule:nonzero;stroke:black;stroke-width:1.66px;"/>
        </g>
        <g transform="matrix(1,0,0,1,4.54747e-13,170.079)">
            <path d="M0,0L841.89,0" style="fill:none;fill-rule:nonzero;stroke:rgb(216,59,85);stroke-width:1.66px;stroke-linejoin:miter;stroke-miterlimit:10;"/>
        </g>
        <g transform="matrix(1,0,0,1,38.268,595.276)">
            <path d="M0,-595.275L0,0L0,-595.275Z" style="fill:rgb(188,57,84);fill-rule:nonzero;stroke:black;stroke-width:1.66px;"/>
        </g>
        <g transform="matrix(0,1,1,0,335.906,297.638)">
            <path d="M-297.638,-297.638L297.638,-297.638" style="fill:none;fill-rule:nonzero;stroke:rgb(216,59,85);stroke-width:1.66px;stroke-linejoin:miter;stroke-miterlimit:10;"/>
        </g>
        <g transform="matrix(1,0,0,1,165.827,595.276)">
            <path d="M0,-595.275L0,0L0,-595.275Z" style="fill:rgb(188,57,84);fill-rule:nonzero;stroke:black;stroke-width:1.66px;"/>
        </g>
        <g transform="matrix(0,1,1,0,463.465,297.638)">
            <path d="M-297.638,-297.638L297.638,-297.638" style="fill:none;fill-rule:nonzero;stroke:rgb(216,59,85);stroke-width:1.66px;stroke-linejoin:miter;stroke-miterlimit:10;"/>
        </g>
        <g transform="matrix(1,0,0,1,293.386,595.276)">
            <path d="M0,-595.275L0,0L0,-595.275Z" style="fill:rgb(188,57,84);fill-rule:nonzero;stroke:black;stroke-width:1.66px;"/>
        </g>
        <g transform="matrix(0,1,1,0,591.024,297.638)">
            <path d="M-297.638,-297.638L297.638,-297.638" style="fill:none;fill-rule:nonzero;stroke:rgb(216,59,85);stroke-width:1.66px;stroke-linejoin:miter;stroke-miterlimit:10;"/>
        </g>
        <g transform="matrix(1,0,0,1,420.945,595.276)">
            <path d="M0,-595.275L0,0L0,-595.275Z" style="fill:rgb(188,57,84);fill-rule:nonzero;stroke:black;stroke-width:1.66px;"/>
        </g>
        <g transform="matrix(0,1,1,0,718.583,297.638)">
            <path d="M-297.638,-297.638L297.638,-297.638" style="fill:none;fill-rule:nonzero;stroke:rgb(216,59,85);stroke-width:1.66px;stroke-linejoin:miter;stroke-miterlimit:10;"/>
        </g>
        <g transform="matrix(1,0,0,1,548.504,595.276)">
            <path d="M0,-595.275L0,0L0,-595.275Z" style="fill:rgb(188,57,84);fill-rule:nonzero;stroke:black;stroke-width:1.66px;"/>
        </g>
        <g transform="matrix(0,1,1,0,846.142,297.638)">
            <path d="M-297.638,-297.638L297.638,-297.638" style="fill:none;fill-rule:nonzero;stroke:rgb(216,59,85);stroke-width:1.66px;stroke-linejoin:miter;stroke-miterlimit:10;"/>
        </g>
    </g>
    <g transform="matrix(0.250691,0,0,0.250894,-9.5682,-10.7088)">
        <g transform="matrix(1,0,0,1,32.5984,552.756)">
            <path d="M0,0L11.339,0" style="fill:none;fill-rule:nonzero;stroke:white;stroke-width:1.83px;stroke-linejoin:miter;stroke-miterlimit:10;"/>
        </g>
        <g transform="matrix(0,1,1,0,43.9372,552.756)">
            <path d="M-5.67,-5.67L5.67,-5.67" style="fill:none;fill-rule:nonzero;stroke:white;stroke-width:1.83px;stroke-linejoin:miter;stroke-miterlimit:10;"/>
        </g>
        <g transform="matrix(1,0,0,1,32.5984,42.5201)">
            <path d="M0,0L11.339,0" style="fill:none;fill-rule:nonzero;stroke:white;stroke-width:1.83px;stroke-linejoin:miter;stroke-miterlimit:10;"/>
        </g>
        <g transform="matrix(0,1,1,0,43.9372,42.5203)">
            <path d="M-5.67,-5.67L5.67,-5.67" style="fill:none;fill-rule:nonzero;stroke:white;stroke-width:1.83px;stroke-linejoin:miter;stroke-miterlimit:10;"/>
        </g>
        <g transform="matrix(1,0,0,1,160.158,552.756)">
            <path d="M0,0L11.339,0" style="fill:none;fill-rule:nonzero;stroke:white;stroke-width:1.83px;stroke-linejoin:miter;stroke-miterlimit:10;"/>
        </g>
        <g transform="matrix(0,1,1,0,171.496,552.756)">
            <path d="M-5.67,-5.67L5.67,-5.67" style="fill:none;fill-rule:nonzero;stroke:white;stroke-width:1.83px;stroke-linejoin:miter;stroke-miterlimit:10;"/>
        </g>
        <g transform="matrix(1,0,0,1,160.158,42.5201)">
            <path d="M0,0L11.339,0" style="fill:none;fill-rule:nonzero;stroke:white;stroke-width:1.83px;stroke-linejoin:miter;stroke-miterlimit:10;"/>
        </g>
        <g transform="matrix(0,1,1,0,171.496,42.5203)">
            <path d="M-5.67,-5.67L5.67,-5.67" style="fill:none;fill-rule:nonzero;stroke:white;stroke-width:1.83px;stroke-linejoin:miter;stroke-miterlimit:10;"/>
        </g>
        <g transform="matrix(1,0,0,1,287.717,552.756)">
            <path d="M0,0L11.339,0" style="fill:none;fill-rule:nonzero;stroke:white;stroke-width:1.83px;stroke-linejoin:miter;stroke-miterlimit:10;"/>
        </g>
        <g transform="matrix(0,1,1,0,299.055,552.756)">
            <path d="M-5.67,-5.67L5.67,-5.67" style="fill:none;fill-rule:nonzero;stroke:white;stroke-width:1.83px;stroke-linejoin:miter;stroke-miterlimit:10;"/>
        </g>
        <g transform="matrix(1,0,0,1,287.717,42.5201)">
            <path d="M0,0L11.339,0" style="fill:none;fill-rule:nonzero;stroke:white;stroke-width:1.83px;stroke-linejoin:miter;stroke-miterlimit:10;"/>
        </g>
        <g transform="matrix(0,1,1,0,299.055,42.5203)">
            <path d="M-5.67,-5.67L5.67,-5.67" style="fill:none;fill-rule:nonzero;stroke:white;stroke-width:1.83px;stroke-linejoin:miter;stroke-miterlimit:10;"/>
        </g>
        <g transform="matrix(1,0,0,1,415.276,552.756)">
            <path d="M0,0L11.339,0" style="fill:none;fill-rule:nonzero;stroke:white;stroke-width:1.83px;stroke-linejoin:miter;stroke-miterlimit:10;"/>
        </g>
        <g transform="matrix(0,1,1,0,426.614,552.756)">
            <path d="M-5.67,-5.67L5.67,-5.67" style="fill:none;fill-rule:nonzero;stroke:white;stroke-width:1.83px;stroke-linejoin:miter;stroke-miterlimit:10;"/>
        </g>
        <g transform="matrix(1,0,0,1,415.276,42.5201)">
            <path d="M0,0L11.339,0" style="fill:none;fill-rule:nonzero;stroke:white;stroke-width:1.83px;stroke-linejoin:miter;stroke-miterlimit:10;"/>
        </g>
        <g transform="matrix(0,1,1,0,426.614,42.5203)">
            <path d="M-5.67,-5.67L5.67,-5.67" style="fill:none;fill-rule:nonzero;stroke:white;stroke-width:1.83px;stroke-linejoin:miter;stroke-miterlimit:10;"/>
        </g>
        <g transform="matrix(1,0,0,1,542.835,552.756)">
            <path d="M0,0L11.339,0" style="fill:none;fill-rule:nonzero;stroke:white;stroke-width:1.83px;stroke-linejoin:miter;stroke-miterlimit:10;"/>
        </g>
        <g transform="matrix(0,1,1,0,554.174,552.756)">
            <path d="M-5.67,-5.67L5.67,-5.67" style="fill:none;fill-rule:nonzero;stroke:white;stroke-width:1.83px;stroke-linejoin:miter;stroke-miterlimit:10;"/>
        </g>
        <g transform="matrix(1,0,0,1,542.835,42.5201)">
            <path d="M0,0L11.339,0" style="fill:none;fill-rule:nonzero;stroke:white;stroke-width:1.83px;stroke-linejoin:miter;stroke-miterlimit:10;"/>
        </g>
        <g transform="matrix(0,1,1,0,554.174,42.5203)">
            <path d="M-5.67,-5.67L5.67,-5.67" style="fill:none;fill-rule:nonzero;stroke:white;stroke-width:1.83px;stroke-linejoin:miter;stroke-miterlimit:10;"/>
        </g>
        <g transform="matrix(1,0,0,1,32.5984,425.197)">
            <path d="M0,0L11.339,0" style="fill:none;fill-rule:nonzero;stroke:white;stroke-width:1.83px;stroke-linejoin:miter;stroke-miterlimit:10;"/>
        </g>
        <g transform="matrix(0,1,1,0,43.9372,425.198)">
            <path d="M-5.67,-5.67L5.67,-5.67" style="fill:none;fill-rule:nonzero;stroke:white;stroke-width:1.83px;stroke-linejoin:miter;stroke-miterlimit:10;"/>
        </g>
        <g transform="matrix(1,0,0,1,160.158,425.197)">
            <path d="M0,0L11.339,0" style="fill:none;fill-rule:nonzero;stroke:white;stroke-width:1.83px;stroke-linejoin:miter;stroke-miterlimit:10;"/>
        </g>
        <g transform="matrix(0,1,1,0,171.496,425.198)">
            <path d="M-5.67,-5.67L5.67,-5.67" style="fill:none;fill-rule:nonzero;stroke:white;stroke-width:1.83px;stroke-linejoin:miter;stroke-miterlimit:10;"/>
        </g>
        <g transform="matrix(1,0,0,1,287.717,425.197)">
            <path d="M0,0L11.339,0" style="fill:none;fill-rule:nonzero;stroke:white;stroke-width:1.83px;stroke-linejoin:miter;stroke-miterlimit:10;"/>
        </g>
        <g transform="matrix(0,1,1,0,299.055,425.198)">
            <path d="M-5.67,-5.67L5.67,-5.67" style="fill:none;fill-rule:nonzero;stroke:white;stroke-width:1.83px;stroke-linejoin:miter;stroke-miterlimit:10;"/>
        </g>
        <g transform="matrix(1,0,0,1,415.276,425.197)">
            <path d="M0,0L11.339,0" style="fill:none;fill-rule:nonzero;stroke:white;stroke-width:1.83px;stroke-linejoin:miter;stroke-miterlimit:10;"/>
        </g>
        <g transform="matrix(0,1,1,0,426.614,425.198)">
            <path d="M-5.67,-5.67L5.67,-5.67" style="fill:none;fill-rule:nonzero;stroke:white;stroke-width:1.83px;stroke-linejoin:miter;stroke-miterlimit:10;"/>
        </g>
        <g transform="matrix(1,0,0,1,542.835,425.197)">
            <path d="M0,0L11.339,0" style="fill:none;fill-rule:nonzero;stroke:white;stroke-width:1.83px;stroke-linejoin:miter;stroke-miterlimit:10;"/>
        </g>
        <g transform="matrix(0,1,1,0,554.174,425.198)">
            <path d="M-5.67,-5.67L5.67,-5.67" style="fill:none;fill-rule:nonzero;stroke:white;stroke-width:1.83px;stroke-linejoin:miter;stroke-miterlimit:10;"/>
        </g>
        <g transform="matrix(1,0,0,1,32.5984,297.638)">
            <path d="M0,0L11.339,0" style="fill:none;fill-rule:nonzero;stroke:white;stroke-width:1.83px;stroke-linejoin:miter;stroke-miterlimit:10;"/>
        </g>
        <g transform="matrix(0,1,1,0,43.9372,297.638)">
            <path d="M-5.67,-5.67L5.67,-5.67" style="fill:none;fill-rule:nonzero;stroke:white;stroke-width:1.83px;stroke-linejoin:miter;stroke-miterlimit:10;"/>
        </g>
        <g transform="matrix(1,0,0,1,160.158,297.638)">
            <path d="M0,0L11.339,0" style="fill:none;fill-rule:nonzero;stroke:white;stroke-width:1.83px;stroke-linejoin:miter;stroke-miterlimit:10;"/>
        </g>
        <g transform="matrix(0,1,1,0,171.496,297.638)">
            <path d="M-5.67,-5.67L5.67,-5.67" style="fill:none;fill-rule:nonzero;stroke:white;stroke-width:1.83px;stroke-linejoin:miter;stroke-miterlimit:10;"/>
        </g>
        <g transform="matrix(1,0,0,1,287.717,297.638)">
            <path d="M0,0L11.339,0" style="fill:none;fill-rule:nonzero;stroke:white;stroke-width:1.83px;stroke-linejoin:miter;stroke-miterlimit:10;"/>
        </g>
        <g transform="matrix(0,1,1,0,299.055,297.638)">
            <path d="M-5.67,-5.67L5.67,-5.67" style="fill:none;fill-rule:nonzero;stroke:white;stroke-width:1.83px;stroke-linejoin:miter;stroke-miterlimit:10;"/>
        </g>
        <g transform="matrix(1,0,0,1,415.276,297.638)">
            <path d="M0,0L11.339,0" style="fill:none;fill-rule:nonzero;stroke:white;stroke-width:1.83px;stroke-linejoin:miter;stroke-miterlimit:10;"/>
        </g>
        <g transform="matrix(0,1,1,0,426.614,297.638)">
            <path d="M-5.67,-5.67L5.67,-5.67" style="fill:none;fill-rule:nonzero;stroke:white;stroke-width:1.83px;stroke-linejoin:miter;stroke-miterlimit:10;"/>
        </g>
        <g transform="matrix(1,0,0,1,542.835,297.638)">
            <path d="M0,0L11.339,0" style="fill:none;fill-rule:nonzero;stroke:white;stroke-width:1.83px;stroke-linejoin:miter;stroke-miterlimit:10;"/>
        </g>
        <g transform="matrix(0,1,1,0,554.174,297.638)">
            <path d="M-5.67,-5.67L5.67,-5.67" style="fill:none;fill-rule:nonzero;stroke:white;stroke-width:1.83px;stroke-linejoin:miter;stroke-miterlimit:10;"/>
        </g>
        <g transform="matrix(1,0,0,1,32.5984,170.079)">
            <path d="M0,0L11.339,0" style="fill:none;fill-rule:nonzero;stroke:white;stroke-width:1.83px;stroke-linejoin:miter;stroke-miterlimit:10;"/>
        </g>
        <g transform="matrix(0,1,1,0,43.9372,170.079)">
            <path d="M-5.67,-5.67L5.67,-5.67" style="fill:none;fill-rule:nonzero;stroke:white;stroke-width:1.83px;stroke-linejoin:miter;stroke-miterlimit:10;"/>
        </g>
        <g transform="matrix(1,0,0,1,160.158,170.079)">
            <path d="M0,0L11.339,0" style="fill:none;fill-rule:nonzero;stroke:white;stroke-width:1.83px;stroke-linejoin:miter;stroke-miterlimit:10;"/>
        </g>
        <g transform="matrix(0,1,1,0,171.496,170.079)">
            <path d="M-5.67,-5.67L5.67,-5.67" style="fill:none;fill-rule:nonzero;stroke:white;stroke-width:1.83px;stroke-linejoin:miter;stroke-miterlimit:10;"/>
        </g>
        <g transform="matrix(1,0,0,1,287.717,170.079)">
            <path d="M0,0L11.339,0" style="fill:none;fill-rule:nonzero;stroke:white;stroke-width:1.83px;stroke-linejoin:miter;stroke-miterlimit:10;"/>
        </g>
        <g transform="matrix(0,1,1,0,299.055,170.079)">
            <path d="M-5.67,-5.67L5.67,-5.67" style="fill:none;fill-rule:nonzero;stroke:white;stroke-width:1.83px;stroke-linejoin:miter;stroke-miterlimit:10;"/>
        </g>
        <g transform="matrix(1,0,0,1,415.276,170.079)">
            <path d="M0,0L11.339,0" style="fill:none;fill-rule:nonzero;stroke:white;stroke-width:1.83px;stroke-linejoin:miter;stroke-miterlimit:10;"/>
        </g>
        <g transform="matrix(0,1,1,0,426.614,170.079)">
            <path d="M-5.67,-5.67L5.67,-5.67" style="fill:none;fill-rule:nonzero;stroke:white;stroke-width:1.83px;stroke-linejoin:miter;stroke-miterlimit:10;"/>
        </g>
        <g transform="matrix(1,0,0,1,542.835,170.079)">
            <path d="M0,0L11.339,0" style="fill:none;fill-rule:nonzero;stroke:white;stroke-width:1.83px;stroke-linejoin:miter;stroke-miterlimit:10;"/>
        </g>
        <g transform="matrix(0,1,1,0,554.174,170.079)">
            <path d="M-5.67,-5.67L5.67,-5.67" style="fill:none;fill-rule:nonzero;stroke:white;stroke-width:1.83px;stroke-linejoin:miter;stroke-miterlimit:10;"/>
        </g>
    </g>
</svg>
