<?xml version="1.0" encoding="UTF-8" standalone="no"?>
<!DOCTYPE svg PUBLIC "-//W3C//DTD SVG 1.1//EN" "http://www.w3.org/Graphics/SVG/1.1/DTD/svg11.dtd">
<svg width="100%" height="100%" viewBox="0 0 128 128" version="1.1" xmlns="http://www.w3.org/2000/svg" xmlns:xlink="http://www.w3.org/1999/xlink" xml:space="preserve" xmlns:serif="http://www.serif.com/" style="fill-rule:evenodd;clip-rule:evenodd;stroke-linejoin:round;stroke-miterlimit:2;">
    <g transform="matrix(0.500617,0,0,0.501023,-210.561,-148.993)">
        <g transform="matrix(1,0,0,1,4.54747e-13,552.756)">
            <path d="M0,0L841.89,0L0,0Z" style="fill:rgb(188,57,84);fill-rule:nonzero;stroke:black;stroke-width:0.83px;"/>
        </g>
        <g transform="matrix(1,0,0,1,4.54747e-13,552.756)">
            <path d="M0,0L841.89,0" style="fill:none;fill-rule:nonzero;stroke:rgb(216,59,85);stroke-width:0.83px;stroke-linejoin:miter;stroke-miterlimit:10;"/>
        </g>
        <g transform="matrix(1,0,0,1,4.54747e-13,425.198)">
            <path d="M0,0L841.89,0L0,0Z" style="fill:rgb(188,57,84);fill-rule:nonzero;stroke:black;stroke-width:0.83px;"/>
        </g>
        <g transform="matrix(1,0,0,1,4.54747e-13,425.197)">
            <path d="M0,0L841.89,0" style="fill:none;fill-rule:nonzero;stroke:rgb(216,59,85);stroke-width:0.83px;stroke-linejoin:miter;stroke-miterlimit:10;"/>
        </g>
        <g transform="matrix(1,0,0,1,4.54747e-13,297.638)">
            <path d="M0,0L841.89,0L0,0Z" style="fill:rgb(188,57,84);fill-rule:nonzero;stroke:black;stroke-width:0.83px;"/>
        </g>
        <g transform="matrix(1,0,0,1,4.54747e-13,297.638)">
            <path d="M0,0L841.89,0" style="fill:none;fill-rule:nonzero;stroke:rgb(216,59,85);stroke-width:0.83px;stroke-linejoin:miter;stroke-miterlimit:10;"/>
        </g>
        <g transform="matrix(1,0,0,1,420.945,595.276)">
            <path d="M0,-595.275L0,0L0,-595.275Z" style="fill:rgb(188,57,84);fill-rule:nonzero;stroke:black;stroke-width:0.83px;"/>
        </g>
        <g transform="matrix(0,1,1,0,718.583,297.638)">
            <path d="M-297.638,-297.638L297.638,-297.638" style="fill:none;fill-rule:nonzero;stroke:rgb(216,59,85);stroke-width:0.83px;stroke-linejoin:miter;stroke-miterlimit:10;"/>
        </g>
        <g transform="matrix(1,0,0,1,548.504,595.276)">
            <path d="M0,-595.275L0,0L0,-595.275Z" style="fill:rgb(188,57,84);fill-rule:nonzero;stroke:black;stroke-width:0.83px;"/>
        </g>
        <g transform="matrix(0,1,1,0,846.142,297.638)">
            <path d="M-297.638,-297.638L297.638,-297.638" style="fill:none;fill-rule:nonzero;stroke:rgb(216,59,85);stroke-width:0.83px;stroke-linejoin:miter;stroke-miterlimit:10;"/>
        </g>
        <g transform="matrix(1,0,0,1,676.063,595.276)">
            <path d="M0,-595.275L0,0L0,-595.275Z" style="fill:rgb(188,57,84);fill-rule:nonzero;stroke:black;stroke-width:0.83px;"/>
        </g>
        <g transform="matrix(0,1,1,0,973.701,297.638)">
            <path d="M-297.638,-297.638L297.638,-297.638" style="fill:none;fill-rule:nonzero;stroke:rgb(216,59,85);stroke-width:0.83px;stroke-linejoin:miter;stroke-miterlimit:10;"/>
        </g>
    </g>
    <g transform="matrix(0.500617,0,0,0.501023,-210.561,-148.993)">
        <g transform="matrix(1,0,0,1,415.276,552.756)">
            <path d="M0,0L11.339,0" style="fill:none;fill-rule:nonzero;stroke:white;stroke-width:0.92px;stroke-linejoin:miter;stroke-miterlimit:10;"/>
        </g>
        <g transform="matrix(0,1,1,0,426.614,552.756)">
            <path d="M-5.67,-5.67L5.67,-5.67" style="fill:none;fill-rule:nonzero;stroke:white;stroke-width:0.92px;stroke-linejoin:miter;stroke-miterlimit:10;"/>
        </g>
        <g transform="matrix(1,0,0,1,542.835,552.756)">
            <path d="M0,0L11.339,0" style="fill:none;fill-rule:nonzero;stroke:white;stroke-width:0.92px;stroke-linejoin:miter;stroke-miterlimit:10;"/>
        </g>
        <g transform="matrix(0,1,1,0,554.174,552.756)">
            <path d="M-5.67,-5.67L5.67,-5.67" style="fill:none;fill-rule:nonzero;stroke:white;stroke-width:0.92px;stroke-linejoin:miter;stroke-miterlimit:10;"/>
        </g>
        <g transform="matrix(1,0,0,1,670.394,552.756)">
            <path d="M0,0L11.339,0" style="fill:none;fill-rule:nonzero;stroke:white;stroke-width:0.92px;stroke-linejoin:miter;stroke-miterlimit:10;"/>
        </g>
        <g transform="matrix(0,1,1,0,681.733,552.756)">
            <path d="M-5.67,-5.67L5.67,-5.67" style="fill:none;fill-rule:nonzero;stroke:white;stroke-width:0.92px;stroke-linejoin:miter;stroke-miterlimit:10;"/>
        </g>
        <g transform="matrix(1,0,0,1,415.276,425.197)">
            <path d="M0,0L11.339,0" style="fill:none;fill-rule:nonzero;stroke:white;stroke-width:0.92px;stroke-linejoin:miter;stroke-miterlimit:10;"/>
        </g>
        <g transform="matrix(0,1,1,0,426.614,425.198)">
            <path d="M-5.67,-5.67L5.67,-5.67" style="fill:none;fill-rule:nonzero;stroke:white;stroke-width:0.92px;stroke-linejoin:miter;stroke-miterlimit:10;"/>
        </g>
        <g transform="matrix(1,0,0,1,542.835,425.197)">
            <path d="M0,0L11.339,0" style="fill:none;fill-rule:nonzero;stroke:white;stroke-width:0.92px;stroke-linejoin:miter;stroke-miterlimit:10;"/>
        </g>
        <g transform="matrix(0,1,1,0,554.174,425.198)">
            <path d="M-5.67,-5.67L5.67,-5.67" style="fill:none;fill-rule:nonzero;stroke:white;stroke-width:0.92px;stroke-linejoin:miter;stroke-miterlimit:10;"/>
        </g>
        <g transform="matrix(1,0,0,1,670.394,425.197)">
            <path d="M0,0L11.339,0" style="fill:none;fill-rule:nonzero;stroke:white;stroke-width:0.92px;stroke-linejoin:miter;stroke-miterlimit:10;"/>
        </g>
        <g transform="matrix(0,1,1,0,681.733,425.198)">
            <path d="M-5.67,-5.67L5.67,-5.67" style="fill:none;fill-rule:nonzero;stroke:white;stroke-width:0.92px;stroke-linejoin:miter;stroke-miterlimit:10;"/>
        </g>
        <g transform="matrix(1,0,0,1,415.276,297.638)">
            <path d="M0,0L11.339,0" style="fill:none;fill-rule:nonzero;stroke:white;stroke-width:0.92px;stroke-linejoin:miter;stroke-miterlimit:10;"/>
        </g>
        <g transform="matrix(0,1,1,0,426.614,297.638)">
            <path d="M-5.67,-5.67L5.67,-5.67" style="fill:none;fill-rule:nonzero;stroke:white;stroke-width:0.92px;stroke-linejoin:miter;stroke-miterlimit:10;"/>
        </g>
        <g transform="matrix(1,0,0,1,542.835,297.638)">
            <path d="M0,0L11.339,0" style="fill:none;fill-rule:nonzero;stroke:white;stroke-width:0.92px;stroke-linejoin:miter;stroke-miterlimit:10;"/>
        </g>
        <g transform="matrix(0,1,1,0,554.174,297.638)">
            <path d="M-5.67,-5.67L5.67,-5.67" style="fill:none;fill-rule:nonzero;stroke:white;stroke-width:0.92px;stroke-linejoin:miter;stroke-miterlimit:10;"/>
        </g>
        <g transform="matrix(1,0,0,1,670.394,297.638)">
            <path d="M0,0L11.339,0" style="fill:none;fill-rule:nonzero;stroke:white;stroke-width:0.92px;stroke-linejoin:miter;stroke-miterlimit:10;"/>
        </g>
        <g transform="matrix(0,1,1,0,681.733,297.638)">
            <path d="M-5.67,-5.67L5.67,-5.67" style="fill:none;fill-rule:nonzero;stroke:white;stroke-width:0.92px;stroke-linejoin:miter;stroke-miterlimit:10;"/>
        </g>
    </g>
</svg>
