<?xml version="1.0" encoding="UTF-8" standalone="no"?>
<!DOCTYPE svg PUBLIC "-//W3C//DTD SVG 1.1//EN" "http://www.w3.org/Graphics/SVG/1.1/DTD/svg11.dtd">
<svg width="100%" height="100%" viewBox="0 0 128 128" version="1.1" xmlns="http://www.w3.org/2000/svg" xmlns:xlink="http://www.w3.org/1999/xlink" xml:space="preserve" xmlns:serif="http://www.serif.com/" style="fill-rule:evenodd;clip-rule:evenodd;stroke-miterlimit:10;">
    <g transform="matrix(0,0.215026,0.493284,0,274.82,64)">
        <path d="M-297.638,-297.638L297.638,-297.638" style="fill:none;fill-rule:nonzero;stroke:rgb(216,59,85);stroke-width:1.1px;"/>
    </g>
    <g transform="matrix(0.152039,0,0,1.01691,0,0)">
        <path d="M0,0L841.89,0" style="fill:none;fill-rule:nonzero;stroke:rgb(216,59,85);stroke-width:0.57px;"/>
    </g>
    <g transform="matrix(0.152039,0,0,1.01691,0,128)">
        <path d="M0,0L841.89,0" style="fill:none;fill-rule:nonzero;stroke:rgb(216,59,85);stroke-width:0.57px;"/>
    </g>
    <g transform="matrix(0,0.215026,0.493284,0,146.82,64)">
        <path d="M-297.638,-297.638L297.638,-297.638" style="fill:none;fill-rule:nonzero;stroke:rgb(216,59,85);stroke-width:1.1px;"/>
    </g>
    <g>
        <g transform="matrix(1.01256,0,0,1.01691,122.259,-0.000203382)">
            <path d="M0,0L11.339,0" style="fill:none;fill-rule:nonzero;stroke:white;stroke-width:0.45px;"/>
        </g>
        <g transform="matrix(0,1.01691,1.01256,0,133.74,0)">
            <path d="M-5.67,-5.67L5.67,-5.67" style="fill:none;fill-rule:nonzero;stroke:white;stroke-width:0.45px;"/>
        </g>
    </g>
    <g transform="matrix(1,0,0,1,-127.72,127.72)">
        <g transform="matrix(1.01256,0,0,1.01691,122.259,-0.000203382)">
            <path d="M0,0L11.339,0" style="fill:none;fill-rule:nonzero;stroke:white;stroke-width:0.45px;"/>
        </g>
        <g transform="matrix(0,1.01691,1.01256,0,133.74,0)">
            <path d="M-5.67,-5.67L5.67,-5.67" style="fill:none;fill-rule:nonzero;stroke:white;stroke-width:0.45px;"/>
        </g>
    </g>
    <g transform="matrix(1,0,0,1,0,128)">
        <g transform="matrix(1.01256,0,0,1.01691,122.259,-0.000203382)">
            <path d="M0,0L11.339,0" style="fill:none;fill-rule:nonzero;stroke:white;stroke-width:0.45px;"/>
        </g>
        <g transform="matrix(0,1.01691,1.01256,0,133.74,0)">
            <path d="M-5.67,-5.67L5.67,-5.67" style="fill:none;fill-rule:nonzero;stroke:white;stroke-width:0.45px;"/>
        </g>
    </g>
    <g transform="matrix(1,0,0,1,-127.72,0)">
        <g transform="matrix(1.01256,0,0,1.01691,122.259,-0.000203382)">
            <path d="M0,0L11.339,0" style="fill:none;fill-rule:nonzero;stroke:white;stroke-width:0.45px;"/>
        </g>
        <g transform="matrix(0,1.01691,1.01256,0,133.74,0)">
            <path d="M-5.67,-5.67L5.67,-5.67" style="fill:none;fill-rule:nonzero;stroke:white;stroke-width:0.45px;"/>
        </g>
    </g>
</svg>
